<mxfile host="65bd71144e">
    <diagram id="TYUvzzvcd_C4oI1CKg6v" name="Page-3">
        <mxGraphModel dx="328" dy="163" grid="1" gridSize="10" guides="1" tooltips="1" connect="1" arrows="1" fold="1" page="1" pageScale="1" pageWidth="850" pageHeight="1100" math="0" shadow="0">
            <root>
                <mxCell id="4SqjLOZTPWpwS58K-sQQ-0"/>
                <mxCell id="4SqjLOZTPWpwS58K-sQQ-1" parent="4SqjLOZTPWpwS58K-sQQ-0"/>
                <mxCell id="ER6WUz3GG8Umfju1qKSZ-1" value="" style="whiteSpace=wrap;html=1;aspect=fixed;fontSize=20;fontColor=#FF8000;strokeColor=#333333;fillColor=#E6E6E6;gradientColor=none;" vertex="1" parent="4SqjLOZTPWpwS58K-sQQ-1">
                    <mxGeometry y="90" width="180" height="180" as="geometry"/>
                </mxCell>
                <mxCell id="ER6WUz3GG8Umfju1qKSZ-2" value="&lt;font color=&quot;#ff8000&quot;&gt;x&lt;/font&gt;" style="text;html=1;strokeColor=none;fillColor=none;align=center;verticalAlign=middle;whiteSpace=wrap;rounded=0;fontSize=20;" vertex="1" parent="4SqjLOZTPWpwS58K-sQQ-1">
                    <mxGeometry y="160" width="30" height="30" as="geometry"/>
                </mxCell>
                <mxCell id="ER6WUz3GG8Umfju1qKSZ-3" value="" style="endArrow=classic;html=1;fontSize=20;exitX=0.25;exitY=0;exitDx=0;exitDy=0;entryX=0.75;entryY=0;entryDx=0;entryDy=0;strokeColor=#FF8000;strokeWidth=1;startSize=6;jumpSize=6;endSize=2;" edge="1" parent="4SqjLOZTPWpwS58K-sQQ-1">
                    <mxGeometry width="50" height="50" relative="1" as="geometry">
                        <mxPoint x="7.5" y="169" as="sourcePoint"/>
                        <mxPoint x="22.5" y="169" as="targetPoint"/>
                    </mxGeometry>
                </mxCell>
                <mxCell id="ER6WUz3GG8Umfju1qKSZ-4" value="" style="endArrow=classic;html=1;fontSize=20;exitX=1;exitY=0.5;exitDx=0;exitDy=0;entryX=0;entryY=0.5;entryDx=0;entryDy=0;strokeColor=#99004D;" edge="1" parent="4SqjLOZTPWpwS58K-sQQ-1" source="ER6WUz3GG8Umfju1qKSZ-2" target="ER6WUz3GG8Umfju1qKSZ-5">
                    <mxGeometry width="50" height="50" relative="1" as="geometry">
                        <mxPoint x="110" y="210" as="sourcePoint"/>
                        <mxPoint x="60" y="175" as="targetPoint"/>
                    </mxGeometry>
                </mxCell>
                <mxCell id="ER6WUz3GG8Umfju1qKSZ-5" value="" style="rounded=1;whiteSpace=wrap;html=1;fontSize=20;strokeColor=#333333;fillColor=#E6E6E6;gradientColor=#ffffff;" vertex="1" parent="4SqjLOZTPWpwS58K-sQQ-1">
                    <mxGeometry x="70" y="130" width="30" height="90" as="geometry"/>
                </mxCell>
                <mxCell id="ER6WUz3GG8Umfju1qKSZ-6" value="" style="ellipse;whiteSpace=wrap;html=1;aspect=fixed;fontSize=20;strokeColor=#666600;fillColor=#E6E6E6;" vertex="1" parent="4SqjLOZTPWpwS58K-sQQ-1">
                    <mxGeometry x="75" y="140" width="20" height="20" as="geometry"/>
                </mxCell>
                <mxCell id="ER6WUz3GG8Umfju1qKSZ-7" value="" style="ellipse;whiteSpace=wrap;html=1;aspect=fixed;fontSize=20;strokeColor=#CC0066;fillColor=#E6E6E6;" vertex="1" parent="4SqjLOZTPWpwS58K-sQQ-1">
                    <mxGeometry x="75" y="165" width="20" height="20" as="geometry"/>
                </mxCell>
                <mxCell id="ER6WUz3GG8Umfju1qKSZ-8" value="" style="ellipse;whiteSpace=wrap;html=1;aspect=fixed;fontSize=20;strokeColor=#0000CC;fillColor=#E6E6E6;" vertex="1" parent="4SqjLOZTPWpwS58K-sQQ-1">
                    <mxGeometry x="75" y="190" width="20" height="20" as="geometry"/>
                </mxCell>
                <mxCell id="ER6WUz3GG8Umfju1qKSZ-9" value="" style="rounded=1;whiteSpace=wrap;html=1;fontSize=20;strokeColor=#333333;fillColor=#E6E6E6;" vertex="1" parent="4SqjLOZTPWpwS58K-sQQ-1">
                    <mxGeometry x="140" y="140" width="30" height="70" as="geometry"/>
                </mxCell>
                <mxCell id="ER6WUz3GG8Umfju1qKSZ-10" value="" style="ellipse;whiteSpace=wrap;html=1;aspect=fixed;fontSize=20;strokeColor=#660066;fillColor=#E6E6E6;" vertex="1" parent="4SqjLOZTPWpwS58K-sQQ-1">
                    <mxGeometry x="145" y="185" width="20" height="20" as="geometry"/>
                </mxCell>
                <mxCell id="ER6WUz3GG8Umfju1qKSZ-11" value="" style="endArrow=classic;html=1;fontSize=20;exitX=1;exitY=0.5;exitDx=0;exitDy=0;entryX=0;entryY=0.5;entryDx=0;entryDy=0;strokeColor=#A50040;fillColor=#d80073;" edge="1" parent="4SqjLOZTPWpwS58K-sQQ-1" target="ER6WUz3GG8Umfju1qKSZ-10">
                    <mxGeometry width="50" height="50" relative="1" as="geometry">
                        <mxPoint x="100" y="174.83" as="sourcePoint"/>
                        <mxPoint x="140" y="174.83" as="targetPoint"/>
                    </mxGeometry>
                </mxCell>
                <mxCell id="ER6WUz3GG8Umfju1qKSZ-12" value="" style="endArrow=classic;html=1;exitX=1;exitY=0;exitDx=0;exitDy=0;entryX=0;entryY=0.25;entryDx=0;entryDy=0;strokeColor=#666600;" edge="1" parent="4SqjLOZTPWpwS58K-sQQ-1" source="ER6WUz3GG8Umfju1qKSZ-2" target="ER6WUz3GG8Umfju1qKSZ-5">
                    <mxGeometry width="50" height="50" relative="1" as="geometry">
                        <mxPoint x="130" y="200" as="sourcePoint"/>
                        <mxPoint x="180" y="150" as="targetPoint"/>
                    </mxGeometry>
                </mxCell>
                <mxCell id="ER6WUz3GG8Umfju1qKSZ-14" value="" style="endArrow=classic;html=1;strokeColor=#001DBC;exitX=1;exitY=1;exitDx=0;exitDy=0;entryX=0;entryY=0.75;entryDx=0;entryDy=0;fillColor=#0050ef;" edge="1" parent="4SqjLOZTPWpwS58K-sQQ-1" source="ER6WUz3GG8Umfju1qKSZ-2" target="ER6WUz3GG8Umfju1qKSZ-5">
                    <mxGeometry width="50" height="50" relative="1" as="geometry">
                        <mxPoint x="130" y="200" as="sourcePoint"/>
                        <mxPoint x="180" y="150" as="targetPoint"/>
                    </mxGeometry>
                </mxCell>
                <mxCell id="ER6WUz3GG8Umfju1qKSZ-15" value="" style="endArrow=classic;html=1;strokeColor=#001DBC;exitX=0.989;exitY=0.784;exitDx=0;exitDy=0;exitPerimeter=0;fillColor=#0050ef;entryX=0;entryY=1;entryDx=0;entryDy=0;" edge="1" parent="4SqjLOZTPWpwS58K-sQQ-1" source="ER6WUz3GG8Umfju1qKSZ-5" target="ER6WUz3GG8Umfju1qKSZ-10">
                    <mxGeometry width="50" height="50" relative="1" as="geometry">
                        <mxPoint x="130" y="200" as="sourcePoint"/>
                        <mxPoint x="180" y="150" as="targetPoint"/>
                    </mxGeometry>
                </mxCell>
                <mxCell id="ER6WUz3GG8Umfju1qKSZ-16" value="" style="endArrow=classic;html=1;strokeColor=#666600;exitX=1;exitY=0.25;exitDx=0;exitDy=0;entryX=0;entryY=0;entryDx=0;entryDy=0;fillColor=#60a917;" edge="1" parent="4SqjLOZTPWpwS58K-sQQ-1" source="ER6WUz3GG8Umfju1qKSZ-5" target="ER6WUz3GG8Umfju1qKSZ-10">
                    <mxGeometry width="50" height="50" relative="1" as="geometry">
                        <mxPoint x="130" y="200" as="sourcePoint"/>
                        <mxPoint x="180" y="150" as="targetPoint"/>
                    </mxGeometry>
                </mxCell>
                <mxCell id="ER6WUz3GG8Umfju1qKSZ-18" value="" style="ellipse;whiteSpace=wrap;html=1;aspect=fixed;fontSize=20;strokeColor=#660066;fillColor=#E6E6E6;" vertex="1" parent="4SqjLOZTPWpwS58K-sQQ-1">
                    <mxGeometry x="145" y="145" width="20" height="20" as="geometry"/>
                </mxCell>
                <mxCell id="ER6WUz3GG8Umfju1qKSZ-19" value="" style="endArrow=classic;html=1;strokeColor=#666600;exitX=1;exitY=0.25;exitDx=0;exitDy=0;entryX=0;entryY=0;entryDx=0;entryDy=0;fillColor=#60a917;" edge="1" parent="4SqjLOZTPWpwS58K-sQQ-1" source="ER6WUz3GG8Umfju1qKSZ-5" target="ER6WUz3GG8Umfju1qKSZ-18">
                    <mxGeometry width="50" height="50" relative="1" as="geometry">
                        <mxPoint x="109.03999999999996" y="159.62" as="sourcePoint"/>
                        <mxPoint x="157.92893218813452" y="197.92893218813452" as="targetPoint"/>
                    </mxGeometry>
                </mxCell>
                <mxCell id="ER6WUz3GG8Umfju1qKSZ-20" value="" style="endArrow=classic;html=1;fontSize=20;exitX=1;exitY=0.5;exitDx=0;exitDy=0;entryX=0;entryY=0.5;entryDx=0;entryDy=0;strokeColor=#A50040;fillColor=#d80073;" edge="1" parent="4SqjLOZTPWpwS58K-sQQ-1" source="ER6WUz3GG8Umfju1qKSZ-5" target="ER6WUz3GG8Umfju1qKSZ-18">
                    <mxGeometry width="50" height="50" relative="1" as="geometry">
                        <mxPoint x="110" y="184.83000000000004" as="sourcePoint"/>
                        <mxPoint x="155" y="205" as="targetPoint"/>
                    </mxGeometry>
                </mxCell>
                <mxCell id="ER6WUz3GG8Umfju1qKSZ-21" value="" style="endArrow=classic;html=1;strokeColor=#001DBC;fillColor=#0050ef;entryX=0;entryY=1;entryDx=0;entryDy=0;" edge="1" parent="4SqjLOZTPWpwS58K-sQQ-1" target="ER6WUz3GG8Umfju1qKSZ-18">
                    <mxGeometry width="50" height="50" relative="1" as="geometry">
                        <mxPoint x="100" y="200" as="sourcePoint"/>
                        <mxPoint x="157.92893218813452" y="212.07106781186548" as="targetPoint"/>
                    </mxGeometry>
                </mxCell>
            </root>
        </mxGraphModel>
    </diagram>
</mxfile>